<?xml version="1.0" standalone="no"?>
<!DOCTYPE svg PUBLIC "-//W3C//DTD SVG 20010904//EN"
 "http://www.w3.org/TR/2001/REC-SVG-20010904/DTD/svg10.dtd">
<svg version="1.0" xmlns="http://www.w3.org/2000/svg"
 width="120.000000pt" height="120.000000pt" viewBox="0 0 120.000000 120.000000"
 preserveAspectRatio="xMidYMid meet">
<metadata>
Created by potrace 1.14, written by Peter Selinger 2001-2017
</metadata>
<g transform="translate(0.000000,120.000000) scale(0.100000,-0.100000)"
fill="#000000" stroke="none">
<path d="M441 1184 c-104 -28 -181 -74 -266 -159 -125 -125 -175 -246 -175
-425 0 -179 50 -300 175 -425 125 -125 246 -175 425 -175 179 0 300 50 425
175 125 125 175 246 175 425 0 179 -50 300 -175 425 -86 87 -162 132 -270 160
-75 19 -241 19 -314 -1z"/>
</g>
</svg>
